<?xml version="1.0" encoding="UTF-8" standalone="no"?>
<svg
   viewBox="-147 -70 294 345"
   version="1.1"
   id="svg27"
   sodipodi:docname="Android_robot.svg"
   inkscape:version="1.2.2 (732a01da63, 2022-12-09)"
   inkscape:export-filename="Android_robot.png"
   inkscape:export-xdpi="96"
   inkscape:export-ydpi="96"
   xmlns:inkscape="http://www.inkscape.org/namespaces/inkscape"
   xmlns:sodipodi="http://sodipodi.sourceforge.net/DTD/sodipodi-0.dtd"
   xmlns="http://www.w3.org/2000/svg"
   xmlns:svg="http://www.w3.org/2000/svg">
  <defs
     id="defs31">
    <rect
       x="106.95416"
       y="154.39686"
       width="257.48549"
       height="154.427"
       id="rect245" />
  </defs>
  <sodipodi:namedview
     id="namedview29"
     pagecolor="#ffffff"
     bordercolor="#000000"
     borderopacity="0.25"
     inkscape:showpageshadow="2"
     inkscape:pageopacity="0.0"
     inkscape:pagecheckerboard="0"
     inkscape:deskcolor="#d1d1d1"
     showgrid="false"
     inkscape:zoom="2.5451891"
     inkscape:cx="127.10254"
     inkscape:cy="205.48571"
     inkscape:window-width="1920"
     inkscape:window-height="1009"
     inkscape:window-x="-8"
     inkscape:window-y="-8"
     inkscape:window-maximized="1"
     inkscape:current-layer="svg27" />
  <path
     style="fill:#a4c639;fill-opacity:1;stroke-width:0.999999"
     d="m -40.51621,266.62981 c -5.67734,-2.09847 -8.71669,-4.63593 -11.5578,-9.64925 -2.4568,-4.33519 -2.50541,-4.84769 -2.81242,-29.66139 l -0.31257,-25.25 -9.68757,-0.0227 c -10.825018,-0.0227 -15.696225,-1.60214 -20.38454,-6.60193 -5.978948,-6.37606 -5.803049,-3.98645 -5.803049,-78.84396 V 48.068465 H -0.07417 90.92582 V 116.6006 c 0,74.85751 0.17575,72.4679 -5.80305,78.84396 -4.69678,5.00878 -9.55499,6.5774 -20.44694,6.60197 l -9.75001,0.0227 -0.008,23.24999 c -0.008,24.23746 -0.51557,28.25869 -4.29358,33.86763 -7.40353,10.99158 -25.99809,10.99158 -33.40165,0 -3.77798,-5.60894 -4.2878,-9.63017 -4.29358,-33.86763 l -0.004,-23.24999 H -0.07498 -13.07497 l -0.008,23.24999 c -0.003,12.7875 -0.45777,24.87791 -1.01045,26.86764 -3.19514,11.50273 -15.77685,18.37916 -26.42616,14.44301 z m -84.99999,-97.00002 c -5.67738,-2.09844 -8.71672,-4.6359 -11.55783,-9.64921 l -2.50001,-4.41143 -0.288,-45.7514 c -0.18482,-29.345354 0.0832,-47.131093 0.74789,-49.598973 2.56245,-9.516246 10.3767,-15.598488 20.04027,-15.598488 9.55158,0 17.39731,6.019049 19.983986,15.331238 1.345285,4.843124 1.345285,90.392123 0,95.235243 -3.195136,11.50273 -15.776846,18.37917 -26.426156,14.44302 z m 237.99999,0 c -5.67738,-2.09844 -8.71669,-4.6359 -11.55783,-9.64921 l -2.49997,-4.41143 -0.288,-45.7514 c -0.18482,-29.345354 0.0831,-47.131093 0.74789,-49.598973 2.56245,-9.516246 10.37669,-15.598488 20.04027,-15.598488 9.55158,0 17.39731,6.019049 19.98398,15.331238 1.34529,4.843124 1.34529,90.392123 0,95.235243 -3.19513,11.50273 -15.77684,18.37917 -26.42615,14.44302 z M -90.769982,33.319161 C -88.896433,9.137743 -73.988275,-14.28705 -51.37071,-28.5878 l 6.17087,-3.901758 -7.51264,-13.470652 c -7.66129,-13.737146 -8.28408,-16.470616 -3.75254,-16.470616 1.75812,0 4.12093,3.70609 15.72272,24.66123 l 1.47337,2.661279 6.84748,-2.496869 c 19.31176,-7.041865 44.77769,-7.190627 63.85138,-0.37304 3.29783,1.17876 6.40849,2.234155 6.91257,2.345273 0.50411,0.111118 4.1907,-5.647975 8.19243,-12.797972 7.98708,-14.270781 9.44126,-15.878361 12.02547,-13.294151 1.56261,1.56261 1.1774,2.5745 -5.88975,15.471764 l -7.5617,13.799811 6.1423,3.883691 c 22.58748,14.281777 37.49817,37.720668 39.37069,61.888895 l 0.60046,7.749997 H -0.07402 -91.370474 Z M -37.07401,5.069158 c 1.11111,-1.111106 1.99998,-3.333317 1.99998,-5.000013 0,-1.666658 -0.88887,-3.888869 -1.99998,-4.999975 -1.11114,-1.111105 -3.33335,-2.000013 -5.00001,-2.000013 -1.66666,0 -3.88891,0.888908 -5.00001,2.000013 -1.11111,1.111106 -1.99998,3.333317 -1.99998,4.999975 0,1.666696 0.88887,3.888907 1.99998,5.000013 1.1111,1.111105 3.33335,2.000012 5.00001,2.000012 1.66666,0 3.88887,-0.888907 5.00001,-2.000012 z m 84,0 c 1.11111,-1.111106 1.99998,-3.333317 1.99998,-5.000013 0,-1.666658 -0.88887,-3.888869 -1.99998,-4.999975 -4.3282,-4.328202 -12,-1.13159 -12,4.999975 0,3.849298 3.15069,7.000025 6.99999,7.000025 1.66666,0 3.88887,-0.888907 5.00001,-2.000012 z"
     id="path4855" />
  <text
     xml:space="preserve"
     transform="translate(-237.32785,-71.772566)"
     id="text243"
     style="font-style:normal;font-variant:normal;font-weight:bold;font-stretch:normal;font-size:72px;line-height:0.95;font-family:Bahnschrift;-inkscape-font-specification:'Bahnschrift Bold';white-space:pre;shape-inside:url(#rect245);display:inline;fill:#000000"
     x="142.31261"
     y="0"><tspan
       x="151.32227"
       y="210.07548"
       id="tspan6923"><tspan
         style="font-family:'Cascadia Code';-inkscape-font-specification:'Cascadia Code Bold';text-align:center;text-anchor:middle;fill:#4d4d4d"
         id="tspan6921">*.rc</tspan></tspan></text>
</svg>
